<?xml version="1.0" encoding="iso-8859-1"?>
<!-- Generator: Adobe Illustrator 16.0.0, SVG Export Plug-In . SVG Version: 6.00 Build 0)  -->
<!DOCTYPE svg PUBLIC "-//W3C//DTD SVG 1.1//EN" "http://www.w3.org/Graphics/SVG/1.1/DTD/svg11.dtd">
<svg version="1.1" id="Capa_1" xmlns="http://www.w3.org/2000/svg" xmlns:xlink="http://www.w3.org/1999/xlink" x="0px" y="0px"
	 width="455.091px" height="455.091px" viewBox="0 0 455.091 455.091" style="enable-background:new 0 0 455.091 455.091;"
	 xml:space="preserve">
<g>
	<g>
		<path fill="#fff" d="M242.067,417.212h-11.355v-51.107c0-0.106-0.042-0.158-0.042-0.252c-0.021-0.189-0.057-0.353-0.109-0.551
			c-0.08-0.163-0.121-0.342-0.21-0.5c-0.052-0.094-0.052-0.162-0.116-0.236c-0.026-0.089-0.109-0.115-0.146-0.167
			c-0.121-0.132-0.257-0.268-0.396-0.363c-0.129-0.109-0.263-0.2-0.407-0.294c-0.152-0.078-0.312-0.125-0.486-0.179
			c-0.165-0.062-0.333-0.099-0.509-0.109c-0.087-0.011-0.163-0.078-0.256-0.078c-0.101,0-0.175,0.067-0.272,0.078
			c-0.167,0.016-0.332,0.047-0.493,0.109c-0.183,0.054-0.351,0.116-0.521,0.194c-0.076,0.058-0.158,0.068-0.231,0.111
			l-15.003,10.235c-1.226,0.814-1.543,2.511-0.703,3.718c0.52,0.777,1.365,1.17,2.223,1.17c0.522,0,1.049-0.131,1.511-0.468
			l10.798-7.365v46.033h-12.32c-1.483,0-2.688,1.202-2.688,2.688c0,1.48,1.205,2.688,2.688,2.688h29.04
			c1.48,0,2.688-1.207,2.688-2.688C244.745,418.398,243.563,417.212,242.067,417.212z"/>
		<path fill="#fff" d="M364.222,33.759L331.532,1.065C331.033,0.43,330.299,0,329.438,0H125.651c-0.165,0-0.317,0.065-0.478,0.096
			c-0.139,0.027-0.27,0.032-0.404,0.082c-0.386,0.134-0.74,0.329-1.021,0.612L90.874,33.667c-0.753,0.753-0.99,1.876-0.609,2.863
			l106.594,276.775h-4.299c-1.485,0-2.688,1.202-2.688,2.689v28.208c-15.187,11.876-23.917,29.556-23.917,48.799
			c0,34.237,27.856,62.09,62.089,62.09c34.237,0,62.097-27.862,62.097-62.09c0-19.243-8.735-36.923-23.917-48.799v-28.208
			c0-1.487-1.207-2.689-2.688-2.689h-5.265L364.824,36.622C365.208,35.627,364.967,34.504,364.222,33.759z M250.34,318.944
			l-0.104-0.27h0.184L250.34,318.944z M142.927,40.047H312.21l-84.646,219.766L142.927,40.047z M129.569,5.369h0.257v0.672
			L129.569,5.369z M135.208,5.369h6.506v29.297h-0.855l-5.651-14.664V5.369z M301.527,34.672V5.375h6.51v29.297H301.527z
			 M296.151,34.672h-6.508V5.375h6.508V34.672z M284.268,34.672h-6.505V5.375h6.505V34.672z M272.382,34.672h-6.503V5.375h6.503
			V34.672z M260.503,34.672h-6.51V5.375h6.51V34.672z M248.618,34.672h-6.498V5.375h6.498V34.672z M236.744,34.672h-6.51V5.375h6.51
			V34.672z M224.859,34.672h-6.488V5.375h6.488V34.672z M212.99,34.672h-6.504V5.375h6.504V34.672z M201.117,34.672h-6.505V5.375
			h6.505V34.672z M189.248,34.672h-6.504V5.375h6.504V34.672z M177.374,34.672h-6.504V5.375h6.504V34.672z M165.494,34.672h-6.504
			V5.375h6.504V34.672z M153.614,34.672h-6.504V5.375h6.504V34.672z M314.278,34.672h-0.867V5.375h6.5v14.68L314.278,34.672z
			 M325.286,5.369h0.283l-0.283,0.72V5.369z M284.771,393.001c0,31.267-25.434,56.717-56.707,56.717
			c-31.276,0-56.722-25.439-56.722-56.717c0-18.015,8.32-34.562,22.834-45.401c9.896-7.401,21.614-11.312,33.882-11.312
			c12.262,0,23.977,3.916,33.878,11.312C276.446,358.451,284.771,375.007,284.771,393.001z M260.849,318.68v21.661
			c-0.052-0.031-0.114-0.042-0.146-0.096c-2.226-1.38-4.516-2.571-6.851-3.67c-0.342-0.151-0.651-0.33-0.992-0.462
			c-2.29-1.013-4.646-1.873-7.045-2.582c-0.452-0.121-0.903-0.262-1.355-0.372c-2.393-0.661-4.839-1.212-7.316-1.564
			c-0.389-0.053-0.783-0.104-1.176-0.131c-2.615-0.342-5.267-0.562-7.923-0.562c-2.653,0-5.309,0.221-7.921,0.562
			c-0.394,0.047-0.779,0.089-1.172,0.131c-2.483,0.353-4.924,0.903-7.331,1.564c-0.446,0.115-0.892,0.251-1.339,0.367
			c-2.404,0.734-4.764,1.568-7.062,2.587c-0.323,0.116-0.636,0.306-0.958,0.457c-2.349,1.072-4.654,2.29-6.875,3.675
			c-0.05,0.054-0.102,0.064-0.153,0.096V318.68h3.684l3.241,8.411c0.404,1.019,1.629,1.701,2.742,1.701h45.298h0.23
			c0.341,0,0.604-0.147,0.902-0.278c0.059-0.027,0.11-0.027,0.132-0.059c0.646-0.289,1.213-0.715,1.465-1.411l3.243-8.4
			L260.849,318.68L260.849,318.68z"/>
		<path fill="#fff" d="M237.562,353.055c0.693-1.313,0.189-2.945-1.122-3.633c-5.062-2.667-10.5-4.399-16.171-5.181
			c-1.478-0.205-2.822,0.823-3.027,2.304c-0.2,1.47,0.827,2.825,2.302,3.022c5.042,0.688,9.89,2.241,14.396,4.609
			c0.398,0.211,0.803,0.314,1.229,0.314C236.151,354.486,237.079,353.967,237.562,353.055z"/>
		<path fill="#fff" d="M235.074,436.11c-2.656,0.493-5.577,0.776-8.075,0.745c-2.355,0-4.725-0.189-7.042-0.562
			c-1.462-0.241-2.842,0.761-3.079,2.226s0.764,2.839,2.226,3.072c2.612,0.429,5.422,0.776,7.938,0.629
			c3.021,0,6.06-0.294,9.016-0.818c1.459-0.283,2.42-1.681,2.147-3.135C237.931,436.813,236.529,435.858,235.074,436.11z"/>
		<path fill="#fff" d="M221.269,363.417c3.446,3.758,6.177,8.053,8.134,12.734c0.428,1.019,1.415,1.663,2.464,1.663
			c0.341,0,0.693-0.067,1.028-0.208c1.371-0.563,2.016-2.138,1.449-3.514c-2.194-5.264-5.248-10.068-9.11-14.299
			c-1.01-1.102-2.708-1.171-3.801-0.168C220.321,360.623,220.27,362.324,221.269,363.417z"/>
		<path fill="#fff" d="M228.671,394.062c-0.037-1.464-1.29-2.609-2.753-2.604c-1.483,0.031-2.659,1.25-2.623,2.751
			c0.134,5.712,1.248,11.317,3.312,16.661c0.413,1.046,1.427,1.696,2.505,1.696c0.328,0,0.656-0.058,0.976-0.185
			c1.375-0.535,2.067-2.094,1.518-3.47C229.789,404.152,228.789,399.164,228.671,394.062z"/>
		<path fill="#fff" d="M226.204,390.902c0.031,0.704,0.047,1.396,0.047,2.121c0,5.102-0.864,10.126-2.585,14.897
			c-0.504,1.407,0.221,2.949,1.614,3.453c0.299,0.111,0.611,0.158,0.914,0.158c1.102,0,2.133-0.683,2.525-1.773
			c1.942-5.354,2.913-10.982,2.913-16.725c0-0.789-0.016-1.565-0.052-2.353c-0.078-1.475-1.317-2.656-2.801-2.571
			C227.284,388.157,226.111,389.412,226.204,390.902z"/>
		<path fill="#fff" d="M235.085,431.334c-4.436-2.478-8.398-5.692-11.742-9.523c-0.977-1.113-2.68-1.233-3.793-0.262
			c-1.118,0.986-1.231,2.677-0.26,3.794c3.764,4.321,8.192,7.912,13.182,10.688c0.414,0.231,0.865,0.341,1.307,0.341
			c0.94,0,1.859-0.498,2.353-1.379C236.844,433.695,236.394,432.053,235.085,431.334z"/>
		<path fill="#fff" d="M233.038,362.041c-1.191-0.912-2.856-0.73-3.782,0.44c-3.559,4.493-6.272,9.518-8.079,14.92
			c-0.467,1.417,0.291,2.929,1.693,3.396c0.281,0.099,0.569,0.141,0.851,0.141c1.123,0,2.17-0.714,2.549-1.847
			c1.61-4.814,4.029-9.292,7.2-13.281C234.392,364.645,234.193,362.944,233.038,362.041z"/>
		<path fill="#fff" d="M220.124,356.146c0.483,0,0.972-0.12,1.418-0.393c4.328-2.688,9.034-4.594,14.011-5.65
			c1.454-0.304,2.384-1.73,2.085-3.187c-0.296-1.452-1.712-2.366-3.187-2.083c-5.591,1.192-10.889,3.318-15.747,6.342
			c-1.257,0.787-1.645,2.441-0.866,3.695C218.351,355.694,219.227,356.146,220.124,356.146z"/>
		<path fill="#fff" d="M231.59,421.014c-3.248,3.916-7.134,7.212-11.515,9.795c-1.278,0.756-1.704,2.383-0.956,3.684
			c0.504,0.852,1.397,1.324,2.32,1.324c0.465,0,0.938-0.115,1.362-0.374c4.918-2.901,9.25-6.597,12.914-10.99
			c0.945-1.14,0.781-2.83-0.343-3.786C234.23,419.71,232.54,419.868,231.59,421.014z"/>
	</g>
</g>
<g>
</g>
<g>
</g>
<g>
</g>
<g>
</g>
<g>
</g>
<g>
</g>
<g>
</g>
<g>
</g>
<g>
</g>
<g>
</g>
<g>
</g>
<g>
</g>
<g>
</g>
<g>
</g>
<g>
</g>
</svg>
